<?xml version="1.0" encoding="UTF-8" standalone="no"?>
<svg
   xmlns:dc="http://purl.org/dc/elements/1.1/"
   xmlns:cc="http://creativecommons.org/ns#"
   xmlns:rdf="http://www.w3.org/1999/02/22-rdf-syntax-ns#"
   xmlns:svg="http://www.w3.org/2000/svg"
   xmlns="http://www.w3.org/2000/svg"
   xmlns:sodipodi="http://sodipodi.sourceforge.net/DTD/sodipodi-0.dtd"
   xmlns:inkscape="http://www.inkscape.org/namespaces/inkscape"
   version="1.1"
   id="Layer_1"
   x="0px"
   y="0px"
   viewBox="0 0 512.002 512.002"
   style="enable-background:new 0 0 512.002 512.002;"
   xml:space="preserve"
   sodipodi:docname="rebootw.svg"
   inkscape:version="1.0.1 (3bc2e813f5, 2020-09-07)"><metadata
   id="metadata49"><rdf:RDF><cc:Work
       rdf:about=""><dc:format>image/svg+xml</dc:format><dc:type
         rdf:resource="http://purl.org/dc/dcmitype/StillImage" /></cc:Work></rdf:RDF></metadata><defs
   id="defs47" /><sodipodi:namedview
   pagecolor="#ffffff"
   bordercolor="#666666"
   borderopacity="1"
   objecttolerance="10"
   gridtolerance="10"
   guidetolerance="10"
   inkscape:pageopacity="0"
   inkscape:pageshadow="2"
   inkscape:window-width="2558"
   inkscape:window-height="1406"
   id="namedview45"
   showgrid="false"
   inkscape:zoom="1.9687423"
   inkscape:cx="256.00101"
   inkscape:cy="256.00101"
   inkscape:window-x="0"
   inkscape:window-y="32"
   inkscape:window-maximized="0"
   inkscape:current-layer="Layer_1" />
<g
   id="g6"
   transform="matrix(0.9535585,0,0,0.9535585,11.768157,11.889025)">
	<g
   id="g4">
		<path
   d="M 436.866,436.871 C 485.178,388.56 511.787,324.325 511.787,256 511.787,114.961 397.043,0.215 256.004,0.214 V 49.721 C 369.745,49.723 462.28,142.26 462.28,256 c 0,55.101 -21.458,106.902 -60.42,145.864 l -7.571,7.571 -67.552,-67.552 0.021,170.076 170.096,0.041 -67.559,-67.559 z"
   id="path2" />
	</g>
</g>
<g
   id="g12"
   transform="matrix(0.9535585,0,0,0.9535585,11.768157,11.889025)">
	<g
   id="g10">
		<path
   d="m 49.724,256.001 c 0,-55.101 21.458,-106.902 60.42,-145.864 l 7.571,-7.571 67.552,67.552 L 185.245,0.041 15.148,0 l 67.559,67.559 -7.571,7.57 c -48.312,48.31 -74.921,112.545 -74.921,180.87 0,141.039 114.744,255.785 255.783,255.786 v -49.507 c -113.74,0 -206.274,-92.536 -206.274,-206.277 z"
   id="path8" />
	</g>
</g>
<g
   id="g14"
   transform="matrix(0.9535585,0,0,0.9535585,11.768157,11.889025)">
</g>
<g
   id="g16"
   transform="matrix(0.9535585,0,0,0.9535585,11.768157,11.889025)">
</g>
<g
   id="g18"
   transform="matrix(0.9535585,0,0,0.9535585,11.768157,11.889025)">
</g>
<g
   id="g20"
   transform="matrix(0.9535585,0,0,0.9535585,11.768157,11.889025)">
</g>
<g
   id="g22"
   transform="matrix(0.9535585,0,0,0.9535585,11.768157,11.889025)">
</g>
<g
   id="g24"
   transform="matrix(0.9535585,0,0,0.9535585,11.768157,11.889025)">
</g>
<g
   id="g26"
   transform="matrix(0.9535585,0,0,0.9535585,11.768157,11.889025)">
</g>
<g
   id="g28"
   transform="matrix(0.9535585,0,0,0.9535585,11.768157,11.889025)">
</g>
<g
   id="g30"
   transform="matrix(0.9535585,0,0,0.9535585,11.768157,11.889025)">
</g>
<g
   id="g32"
   transform="matrix(0.9535585,0,0,0.9535585,11.768157,11.889025)">
</g>
<g
   id="g34"
   transform="matrix(0.9535585,0,0,0.9535585,11.768157,11.889025)">
</g>
<g
   id="g36"
   transform="matrix(0.9535585,0,0,0.9535585,11.768157,11.889025)">
</g>
<g
   id="g38"
   transform="matrix(0.9535585,0,0,0.9535585,11.768157,11.889025)">
</g>
<g
   id="g40"
   transform="matrix(0.9535585,0,0,0.9535585,11.768157,11.889025)">
</g>
<g
   id="g42"
   transform="matrix(0.9535585,0,0,0.9535585,11.768157,11.889025)">
</g>
</svg>
